<svg width="658" height="136" viewBox="0 0 658 136" fill="none" xmlns="http://www.w3.org/2000/svg">
<path fill-rule="evenodd" clip-rule="evenodd" d="M0 135.372C39.7358 109.305 99.9862 82.2222 160 90.5C261.5 104.5 345.5 94.5 377 63C408.5 31.5 499 10.5 553 50.5C583.153 72.8353 615.02 41.5426 645.12 11.9852C649.272 7.90874 653.39 3.86525 657.465 0H0V135.372Z" fill="#34D4CC" fill-opacity="0.2029"/>
<path fill-rule="evenodd" clip-rule="evenodd" d="M571.581 0C562.572 7.19557 553.202 15.1897 543.099 23.8095L543.097 23.8112L543.096 23.8118L540.84 25.7367C525.332 38.9629 508.06 53.6112 487.697 69.102C467.382 84.5564 448.086 92.5808 427.922 95.4502C407.748 98.321 386.674 96.037 362.794 90.8239C344.6 86.8522 324.806 81.1873 302.557 74.8201C295.595 72.8277 288.393 70.7666 280.924 68.667C249.597 59.8605 213.612 50.3872 171.091 42.5083C102.985 29.8887 56.8404 42.9408 26.8336 64.4561C15.7956 72.3705 6.94883 81.4249 0 90.7567V92.444C7.00712 82.8077 16.0366 73.4282 27.4164 65.2687C57.1596 43.9424 103.015 30.9111 170.909 43.4915C213.388 51.3626 249.34 60.8269 280.654 69.6297C288.106 71.7246 295.297 73.7825 302.251 75.7728L302.255 75.774L302.258 75.7748L302.259 75.7749C324.516 82.1446 344.353 87.8217 362.581 91.8009C386.513 97.0254 407.72 99.3351 428.063 96.4403C448.414 93.5441 467.868 85.4434 488.303 69.8979C508.69 54.3887 525.98 39.7245 541.489 26.4976L543.735 24.5808L543.738 24.5781L543.743 24.574C554.222 15.6342 563.894 7.38258 573.186 0H571.581Z" fill="white"/>
<path fill-rule="evenodd" clip-rule="evenodd" d="M0 19.9674C7.19342 20.0388 14.1523 20.4775 20.629 21.3857C31.9222 22.9693 41.7052 25.9743 48.7121 30.9088C57.4743 37.0793 63.9885 48.0641 70.3377 60.2621C71.5609 62.6119 72.7775 65.0061 74.0025 67.4167C79.1138 77.475 84.3708 87.8198 90.8506 96.4257C98.8973 107.113 108.883 115.195 122.913 116.778C136.919 118.359 154.849 113.45 178.766 98.4234C193.203 89.3528 206.007 81.0175 217.583 73.4809L217.585 73.4799L217.588 73.4781L217.588 73.4781C225.149 68.5554 232.187 63.9734 238.816 59.7498C255.609 49.0486 269.801 40.629 283.326 34.708C310.331 22.8855 334.712 21.0074 371.87 30.9829C409.115 40.9814 435.606 45.7698 459.745 39.7979C479.698 34.8615 497.983 22.5911 519.392 0H518.012C496.955 22.0776 479 34.0041 459.505 38.8271C435.644 44.7302 409.385 40.0186 372.13 30.0171C334.788 19.9924 310.169 21.8644 282.924 33.7919C269.324 39.746 255.078 48.2014 238.278 58.9065C231.629 63.1434 224.584 67.7299 217.02 72.6545L217.017 72.6564C205.451 80.186 192.671 88.5063 178.234 97.5766C154.401 112.55 136.706 117.329 123.025 115.784C109.367 114.243 99.6027 106.387 91.6494 95.8242C85.228 87.2957 80.0218 77.052 74.9129 66.9998L74.9124 66.9989C73.6827 64.5794 72.4587 62.171 71.2248 59.8004C64.8865 47.6234 58.2757 36.4206 49.2879 30.0911C42.0948 25.0256 32.132 21.9889 20.7679 20.3954C14.2389 19.4799 7.23268 19.0388 0 18.9674V19.9674Z" fill="white"/>
</svg>
