<svg width="1359" height="457" viewBox="0 0 1359 457" fill="none" xmlns="http://www.w3.org/2000/svg">
<path d="M317.263 387.056C225.499 376.789 77.8525 429.408 15.5 457L31.9705 33.4875C458.242 25.5734 1293.96 14.4936 1226.67 33.4875C1142.55 57.2299 1133.73 218.293 974.905 215.726C816.083 213.159 801.965 297.22 687.26 369.089C572.555 440.958 431.968 399.89 317.263 387.056Z" fill="#77A06A"/>
<path d="M1 436C82 416.333 263.4 382.9 341 406.5C438 436 611 313.5 718.5 320C826 326.5 855.5 191 950.5 197.5C1045.5 204 1110.5 259 1220.5 79.5" stroke="#266B3E" stroke-width="3"/>
<path d="M33 404C176.333 390.667 490 366.5 598 376.5C733 389 858 136 986.5 163.5C1115 191 1256 262.5 1357.5 1" stroke="#266B3E" stroke-width="3"/>
</svg>
