<svg width="456" height="186" viewBox="0 0 456 186" fill="none" xmlns="http://www.w3.org/2000/svg">
<path fill-rule="evenodd" clip-rule="evenodd" d="M430 24.5C439.724 24.5 448.317 24.7424 456 25.0854V186H139.78C147.585 168.721 165.159 151.682 200 155C263 161 309.5 145.5 324.5 112C326.018 108.609 327.526 105.009 329.09 101.276L329.09 101.275C342.974 68.1217 361.243 24.5 430 24.5Z" fill="#34D4CC" fill-opacity="0.2039"/>
<path fill-rule="evenodd" clip-rule="evenodd" d="M439.257 6.93797C444.94 3.78077 450.517 1.59242 456 0.370728V1.39531C450.685 2.60412 445.271 4.74078 439.743 7.81213C422.963 17.1341 405.14 35.0641 385.906 61.7921C351.463 109.655 309.4 121.224 258.542 135.212C252.371 136.91 246.07 138.643 239.637 140.481C207.348 149.706 186.013 169.311 173.805 186H172.57C184.822 169.022 206.453 148.922 239.363 139.519C245.799 137.68 252.097 135.947 258.261 134.251L258.274 134.248L258.275 134.247C309.149 120.249 350.867 108.77 385.094 61.208C404.36 34.436 422.287 16.366 439.257 6.93797Z" fill="#D9D9D9"/>
<path fill-rule="evenodd" clip-rule="evenodd" d="M408.526 12.7415C423.052 14.6021 440.059 19.9524 456 26.3109V27.3878C440.009 20.9872 422.935 15.5952 408.399 13.7334C396.208 12.1718 385.941 13.1129 379.57 17.8709C373.264 22.5799 370.608 31.1733 373.987 45.3843C378.249 63.3095 378.642 78.9198 373.657 92.4076C368.667 105.907 358.318 117.209 341.24 126.563C307.128 145.25 246.019 156.25 146.527 161.499C66.9264 165.699 25.7691 174.573 6.64457 183.912C5.21963 184.608 3.9203 185.304 2.73874 186H0.826172C2.39523 184.998 4.18319 184.001 6.20579 183.013C25.5312 173.577 66.874 164.701 146.474 160.501C245.981 155.25 306.872 144.25 340.76 125.686C357.683 116.416 367.833 105.28 372.719 92.061C377.609 78.8301 377.252 63.4404 373.014 45.6156C369.593 31.2265 372.203 22.1242 378.971 17.0696C385.674 12.064 396.288 11.1739 408.526 12.7415Z" fill="white"/>
</svg>
