<svg width="53" height="45" viewBox="0 0 53 45" fill="none" xmlns="http://www.w3.org/2000/svg">
<path d="M45.7347 14.4188L42.6431 11.7938C42.2303 11.4502 41.6753 11.2578 41.0972 11.2578C40.5192 11.2578 39.9642 11.4502 39.5514 11.7938L28.7085 21V26.25H34.8918L45.7347 17.0438C46.1394 16.6933 46.366 16.2221 46.366 15.7313C46.366 15.2405 46.1394 14.7693 45.7347 14.4188Z" stroke="black" stroke-width="5" stroke-linecap="round" stroke-linejoin="round"/>
<path d="M39.7502 33.75V37.5C39.7502 37.9973 39.5175 38.4742 39.1034 38.8258C38.6892 39.1775 38.1275 39.375 37.5418 39.375H11.0418C10.4561 39.375 9.89445 39.1775 9.4803 38.8258C9.06616 38.4742 8.8335 37.9973 8.8335 37.5V7.5C8.8335 7.00272 9.06616 6.52581 9.4803 6.17417C9.89445 5.82254 10.4561 5.625 11.0418 5.625H33.1252" stroke="black" stroke-width="5" stroke-linecap="round" stroke-linejoin="round"/>
<path d="M6.625 15H11.0417M6.625 22.5H11.0417M6.625 30H11.0417" stroke="black" stroke-width="5" stroke-linecap="round" stroke-linejoin="round"/>
</svg>
