<svg width="53" height="45" viewBox="0 0 53 45" fill="none" xmlns="http://www.w3.org/2000/svg">
<path d="M45.7343 14.4187L42.6426 11.7937C42.2298 11.4502 41.6748 11.2578 41.0968 11.2578C40.5187 11.2578 39.9637 11.4502 39.5509 11.7937L28.708 21V26.25H34.8913L45.7343 17.0437C46.1389 16.6932 46.3655 16.222 46.3655 15.7312C46.3655 15.2404 46.1389 14.7692 45.7343 14.4187Z" stroke="black" stroke-width="5" stroke-linecap="round" stroke-linejoin="round"/>
<path d="M39.7497 33.75V37.5C39.7497 37.9973 39.517 38.4742 39.1029 38.8258C38.6887 39.1775 38.127 39.375 37.5413 39.375H11.0413C10.4557 39.375 9.89396 39.1775 9.47981 38.8258C9.06567 38.4742 8.83301 37.9973 8.83301 37.5V7.5C8.83301 7.00272 9.06567 6.52581 9.47981 6.17417C9.89396 5.82254 10.4557 5.625 11.0413 5.625H33.1247" stroke="black" stroke-width="5" stroke-linecap="round" stroke-linejoin="round"/>
<path d="M6.625 15H11.0417M6.625 22.5H11.0417M6.625 30H11.0417" stroke="black" stroke-width="5" stroke-linecap="round" stroke-linejoin="round"/>
</svg>
