<svg width="537" height="198" viewBox="0 0 537 198" fill="none" xmlns="http://www.w3.org/2000/svg">
<path fill-rule="evenodd" clip-rule="evenodd" d="M515.287 48.6521C522.235 30.4678 529.07 13.4697 537.001 0.472656V6.43512C530.314 18.4678 524.293 33.4854 518.089 49.7228C517.006 52.557 515.918 55.4269 514.821 58.3219L514.82 58.3235C507.163 78.5228 499.04 99.9493 488.928 119.068C477.367 140.926 463.104 159.976 443.733 170.809C424.004 181.842 402.109 175.83 379.363 162.762C362.09 152.838 343.997 138.648 325.581 124.204L325.581 124.204L325.58 124.204L325.579 124.203C319.735 119.619 313.858 115.01 307.964 110.504C283.394 91.7164 258.511 74.6903 234.062 68.0808C221.871 64.785 209.835 64.0941 198.022 67.0422C186.213 69.9893 174.524 76.598 163.061 88.0606C118.008 133.114 58.0525 171.025 6.95674 198H0.492188C52.445 170.992 114.648 132.232 160.94 85.9393C172.727 74.1519 184.882 67.2294 197.296 64.1315C209.705 61.0347 222.27 61.7852 234.845 65.1847C259.928 71.9658 285.232 89.346 309.787 108.121C315.763 112.69 321.693 117.341 327.569 121.949L327.57 121.95C345.943 136.358 363.79 150.354 380.857 160.16C403.392 173.107 423.997 178.408 442.268 168.191C460.897 157.774 474.821 139.324 486.276 117.666C496.294 98.7248 504.345 77.4894 512.01 57.2725C513.109 54.3749 514.2 51.4981 515.287 48.6521Z" fill="#266B3E"/>
</svg>
