<svg width="721" height="167" viewBox="0 0 721 167" fill="none" xmlns="http://www.w3.org/2000/svg">
<path fill-rule="evenodd" clip-rule="evenodd" d="M610.055 20.5455C641.445 4.14614 675.565 -4.28025 721 2.16549V5.19538C675.96 -1.27697 642.355 7.05527 611.444 23.2045C592.063 33.3299 573.711 46.5448 554.214 61.2142C550.803 63.7806 547.357 66.3913 543.866 69.0371L543.79 69.0942L543.78 69.102L543.779 69.1028L543.777 69.1046C527.358 81.5448 509.923 94.7558 490.329 107.75C466.406 123.615 444.681 131.337 423.319 133.679C401.976 136.018 381.094 132.976 358.888 127.456C345.257 124.067 331.146 119.756 316.107 115.162C282.021 104.749 243.166 92.8785 194.32 86.9892C138.405 80.2477 88.6908 100.478 49.195 128.622C32.5224 140.502 17.6914 153.779 5.00929 167H0.869141C14.1016 152.968 29.7484 138.795 47.454 126.178C87.3415 97.7555 137.794 77.1523 194.679 84.0108C243.792 89.9322 283.107 101.94 317.292 112.38L317.292 112.38L317.294 112.381C332.252 116.949 346.227 121.217 359.611 124.544C381.655 130.024 402.148 132.982 422.992 130.696C443.818 128.413 465.093 120.885 488.67 105.25C508.18 92.3121 525.528 79.1674 541.944 66.7289L541.966 66.7123C545.486 64.0451 548.964 61.4103 552.41 58.817C571.913 44.1427 590.436 30.795 610.055 20.5455Z" fill="#266B3E"/>
</svg>
