<?xml version="1.0" encoding="UTF-8"?>
<svg xmlns="http://www.w3.org/2000/svg" xmlns:xlink="http://www.w3.org/1999/xlink" width="98px" height="69px" viewBox="0 0 97 69" version="1.1">
<defs>
<linearGradient id="linear0" gradientUnits="userSpaceOnUse" x1="-5.56" y1="504" x2="128.87" y2="688.15" gradientTransform="matrix(-0.0698261,-0.092168,-0.0915604,0.0702895,106.878163,-5.753864)">
<stop offset="0.02" style="stop-color:rgb(7.45098%,88.627451%,7.45098%);stop-opacity:1;"/>
<stop offset="0.29" style="stop-color:rgb(7.45098%,48.627451%,7.45098%);stop-opacity:1;"/>
<stop offset="0.35" style="stop-color:rgb(7.45098%,47.45098%,7.45098%);stop-opacity:1;"/>
<stop offset="0.39" style="stop-color:rgb(7.45098%,43.921569%,7.45098%);stop-opacity:1;"/>
<stop offset="0.43" style="stop-color:rgb(7.45098%,37.647059%,7.45098%);stop-opacity:1;"/>
<stop offset="0.47" style="stop-color:rgb(7.45098%,29.019608%,7.45098%);stop-opacity:1;"/>
<stop offset="0.49" style="stop-color:rgb(7.45098%,19.607843%,7.45098%);stop-opacity:1;"/>
<stop offset="0.58" style="stop-color:rgb(7.45098%,21.568627%,7.45098%);stop-opacity:1;"/>
<stop offset="0.69" style="stop-color:rgb(7.45098%,27.843137%,7.45098%);stop-opacity:1;"/>
<stop offset="0.82" style="stop-color:rgb(7.45098%,38.039216%,7.45098%);stop-opacity:1;"/>
<stop offset="0.92" style="stop-color:rgb(7.45098%,48.627451%,7.45098%);stop-opacity:1;"/>
</linearGradient>
</defs>
<g id="surface1">
<path style=" stroke:none;fill-rule:nonzero;fill:url(#linear0);" d="M 57.84375 37.460938 L 57.871094 34.730469 L 57.894531 32.679688 C 57.898438 32.257812 57.679688 31.863281 57.320312 31.648438 L 55.566406 30.601562 L 51.476562 28.164062 C 51.117188 27.949219 50.894531 27.558594 50.898438 27.132812 C 50.910156 26.222656 51.894531 25.664062 52.675781 26.128906 L 53.257812 26.476562 L 55.597656 27.871094 L 56.179688 28.21875 C 56.960938 28.683594 57.945312 28.125 57.957031 27.214844 C 57.960938 26.792969 57.738281 26.398438 57.378906 26.183594 L 53.289062 23.746094 L 50.953125 22.351562 L 49.199219 21.308594 C 48.839844 21.09375 48.390625 21.085938 48.023438 21.296875 L 39.746094 25.984375 C 39.378906 26.191406 39.152344 26.578125 39.148438 27 L 39.09375 31.785156 L 39.042969 36.570312 C 39.035156 36.992188 39.253906 37.386719 39.617188 37.601562 L 40.78125 38.296875 C 41.140625 38.515625 41.589844 38.519531 41.957031 38.3125 L 48.125 34.820312 C 48.339844 34.699219 48.601562 34.703125 48.8125 34.828125 L 50.808594 36.015625 L 53.136719 37.414062 L 53.144531 37.410156 L 55.472656 38.804688 L 55.480469 38.800781 L 56.597656 39.46875 C 57.140625 39.792969 57.824219 39.402344 57.828125 38.769531 L 57.839844 37.464844 Z M 41.480469 28.398438 C 41.484375 27.972656 41.714844 27.585938 42.078125 27.375 L 46.8125 24.695312 C 47.601562 24.25 48.574219 24.828125 48.566406 25.742188 C 48.558594 26.164062 48.332031 26.550781 47.964844 26.757812 L 43.234375 29.4375 C 42.445312 29.882812 41.472656 29.304688 41.480469 28.394531 Z M 53.167969 34.675781 L 50.839844 33.28125 L 50.832031 33.285156 L 48.84375 32.09375 C 48.632812 31.96875 48.371094 31.964844 48.15625 32.085938 L 43.175781 34.90625 C 42.386719 35.351562 41.414062 34.773438 41.421875 33.863281 C 41.425781 33.441406 41.652344 33.050781 42.019531 32.84375 L 48.1875 29.351562 C 48.402344 29.230469 48.664062 29.234375 48.875 29.359375 L 50.863281 30.550781 L 50.871094 30.546875 L 53.199219 31.941406 L 53.207031 31.941406 L 54.953125 32.988281 C 55.316406 33.203125 55.535156 33.597656 55.527344 34.019531 C 55.519531 34.929688 54.53125 35.488281 53.753906 35.023438 Z M 53.167969 34.675781 "/>
<path style=" stroke:none;fill-rule:nonzero;fill:rgb(5.490196%,35.686275%,5.490196%);fill-opacity:1;" d="M 49.878906 39.320312 L 49.792969 47.105469 C 49.789062 47.527344 49.445312 47.863281 49.027344 47.859375 L 47.921875 47.847656 C 47.503906 47.84375 47.167969 47.496094 47.175781 47.078125 L 47.261719 39.292969 C 47.265625 38.871094 47.609375 38.535156 48.023438 38.539062 L 49.132812 38.554688 C 49.550781 38.558594 49.882812 38.902344 49.878906 39.320312 Z M 49.878906 39.320312 "/>
</g>
</svg>
