<?xml version="1.0" encoding="UTF-8"?>
<svg xmlns="http://www.w3.org/2000/svg" xmlns:xlink="http://www.w3.org/1999/xlink" width="1012px" height="716px" viewBox="0 0 1013 716" version="1.1">
<defs>
<linearGradient id="linear0" gradientUnits="userSpaceOnUse" x1="-5.56" y1="504" x2="128.87" y2="688.15" gradientTransform="matrix(-0.729215,-0.95641,-0.956193,0.729381,1116.160613,-59.70676)">
<stop offset="0.02" style="stop-color:rgb(7.45098%,88.627451%,7.45098%);stop-opacity:1;"/>
<stop offset="0.29" style="stop-color:rgb(7.45098%,48.627451%,7.45098%);stop-opacity:1;"/>
<stop offset="0.35" style="stop-color:rgb(7.45098%,47.45098%,7.45098%);stop-opacity:1;"/>
<stop offset="0.39" style="stop-color:rgb(7.45098%,43.921569%,7.45098%);stop-opacity:1;"/>
<stop offset="0.43" style="stop-color:rgb(7.45098%,37.647059%,7.45098%);stop-opacity:1;"/>
<stop offset="0.47" style="stop-color:rgb(7.45098%,29.019608%,7.45098%);stop-opacity:1;"/>
<stop offset="0.49" style="stop-color:rgb(7.45098%,19.607843%,7.45098%);stop-opacity:1;"/>
<stop offset="0.58" style="stop-color:rgb(7.45098%,21.568627%,7.45098%);stop-opacity:1;"/>
<stop offset="0.69" style="stop-color:rgb(7.45098%,27.843137%,7.45098%);stop-opacity:1;"/>
<stop offset="0.82" style="stop-color:rgb(7.45098%,38.039216%,7.45098%);stop-opacity:1;"/>
<stop offset="0.92" style="stop-color:rgb(7.45098%,48.627451%,7.45098%);stop-opacity:1;"/>
</linearGradient>
</defs>
<g id="surface1">
<path style=" stroke:none;fill-rule:nonzero;fill:url(#linear0);" d="M 604.066406 388.742188 L 604.378906 360.382812 L 604.621094 339.105469 C 604.667969 334.714844 602.371094 330.636719 598.59375 328.398438 L 580.292969 317.5625 L 537.589844 292.265625 C 533.816406 290.03125 531.519531 285.953125 531.566406 281.5625 C 531.675781 272.109375 541.96875 266.3125 550.097656 271.132812 L 556.207031 274.753906 L 580.605469 289.210938 L 586.714844 292.832031 C 594.84375 297.65625 605.148438 291.859375 605.246094 282.40625 C 605.292969 278.015625 602.996094 273.9375 599.21875 271.699219 L 556.519531 246.40625 L 532.121094 231.945312 L 513.816406 221.109375 C 510.042969 218.871094 505.363281 218.824219 501.539062 220.976562 L 415.078125 269.628906 C 411.253906 271.785156 408.875 275.8125 408.824219 280.191406 L 408.585938 301.46875 L 408.273438 329.832031 L 407.71875 379.480469 C 407.671875 383.859375 409.957031 387.9375 413.71875 390.175781 L 425.875 397.414062 C 429.652344 399.664062 434.34375 399.726562 438.179688 397.558594 L 502.585938 361.320312 C 504.824219 360.058594 507.5625 360.09375 509.765625 361.402344 L 530.59375 373.746094 L 554.929688 388.226562 L 554.992188 388.191406 L 579.332031 402.671875 L 579.390625 402.636719 L 591.078125 409.5625 C 596.71875 412.90625 603.863281 408.878906 603.921875 402.324219 L 604.042969 388.765625 Z M 433.199219 294.671875 C 433.238281 290.28125 435.628906 286.242188 439.453125 284.078125 L 488.878906 256.265625 C 497.113281 251.636719 507.289062 257.652344 507.179688 267.105469 C 507.132812 271.496094 504.75 275.523438 500.925781 277.664062 L 451.503906 305.472656 C 443.277344 310.105469 433.117188 304.101562 433.199219 294.660156 Z M 555.269531 359.839844 L 530.929688 345.359375 L 530.867188 345.394531 L 510.101562 333.03125 C 507.890625 331.71875 505.148438 331.683594 502.910156 332.945312 L 450.878906 362.222656 C 442.652344 366.851562 432.492188 360.851562 432.574219 351.410156 C 432.609375 347.019531 435.003906 342.976562 438.828125 340.8125 L 503.222656 304.570312 C 505.460938 303.308594 508.214844 303.34375 510.414062 304.65625 L 531.183594 317.019531 L 531.242188 316.984375 L 555.582031 331.464844 L 555.640625 331.429688 L 573.90625 342.304688 C 577.671875 344.539062 579.957031 348.617188 579.90625 352.996094 L 579.90625 353.019531 C 579.800781 362.472656 569.507812 368.273438 561.378906 363.449219 L 555.269531 359.828125 Z M 555.269531 359.839844 "/>
<path style=" stroke:none;fill-rule:nonzero;fill:rgb(5.490196%,35.686275%,5.490196%);fill-opacity:1;" d="M 520.902344 408.035156 L 520 488.824219 C 519.953125 493.179688 516.382812 496.671875 512.027344 496.625 L 500.457031 496.496094 C 496.101562 496.445312 492.609375 492.875 492.65625 488.515625 L 493.558594 407.730469 C 493.609375 403.375 497.179688 399.878906 501.535156 399.929688 L 513.105469 400.058594 C 517.460938 400.105469 520.953125 403.679688 520.902344 408.035156 Z M 520.902344 408.035156 "/>
</g>
</svg>
