<?xml version="1.0" encoding="UTF-8"?><svg id="logo_1" xmlns="http://www.w3.org/2000/svg" xmlns:xlink="http://www.w3.org/1999/xlink" viewBox="0 0 841.89 595.28"><defs><style>.cls-1{fill:url(#linear-gradient);}.cls-2{fill:#0e5b0e;}</style><linearGradient id="linear-gradient" x1="-5.56" y1="504" x2="128.87" y2="688.15" gradientTransform="translate(927.93 -49.64) rotate(-127.33) scale(1 -1)" gradientUnits="userSpaceOnUse"><stop offset=".02" stop-color="#13e213"/><stop offset=".29" stop-color="#137c13"/><stop offset=".35" stop-color="#137913"/><stop offset=".39" stop-color="#137013"/><stop offset=".43" stop-color="#136013"/><stop offset=".47" stop-color="#134a13"/><stop offset=".49" stop-color="#133213"/><stop offset=".58" stop-color="#133713"/><stop offset=".69" stop-color="#134713"/><stop offset=".82" stop-color="#136113"/><stop offset=".92" stop-color="#137c13"/></linearGradient></defs><path class="cls-1" d="M502.08,323.2l.26-23.58,.2-17.69c.04-3.65-1.87-7.04-5.01-8.9l-15.22-9.01-35.51-21.03c-3.14-1.86-5.05-5.25-5.01-8.9h0c.09-7.86,8.65-12.68,15.41-8.67l5.08,3.01,20.29,12.02,5.08,3.01c6.76,4.01,15.33-.81,15.41-8.67h0c.04-3.65-1.87-7.04-5.01-8.9l-35.51-21.03-20.29-12.02-15.22-9.01c-3.14-1.86-7.03-1.9-10.21-.11l-71.9,40.45c-3.18,1.79-5.16,5.14-5.2,8.78l-.2,17.69-.26,23.58-.46,41.28c-.04,3.64,1.86,7.03,4.99,8.89l10.11,6.02c3.14,1.87,7.04,1.92,10.23,.12l53.56-30.13c1.86-1.05,4.14-1.02,5.97,.07l17.32,10.26,20.24,12.04,.05-.03,20.24,12.04,.05-.03,9.72,5.76c4.69,2.78,10.63-.57,10.68-6.02l.1-11.27Zm-142.09-78.21h0c.03-3.65,2.02-7.01,5.2-8.81l41.1-23.12c6.85-3.85,15.31,1.15,15.22,9.01h0c-.04,3.65-2.02,7-5.2,8.78l-41.1,23.12c-6.84,3.85-15.29-1.14-15.22-8.99Zm101.51,54.18l-20.24-12.04-.05,.03-17.27-10.28c-1.84-1.09-4.12-1.12-5.98-.07l-43.27,24.34c-6.84,3.85-15.29-1.14-15.22-8.99h0c.03-3.65,2.02-7.01,5.2-8.81l53.55-30.13c1.86-1.05,4.15-1.02,5.98,.07l17.27,10.28,.05-.03,20.24,12.04,.05-.03,15.19,9.04c3.13,1.86,5.03,5.25,4.99,8.89v.02c-.09,7.86-8.65,12.68-15.41,8.67l-5.08-3.01Z"/><rect class="cls-2" x="381.03" y="361.32" width="80.29" height="22.74" rx="6.56" ry="6.56" transform="translate(798.55 -44.29) rotate(90.64)"/></svg>